<svg xmlns="http://www.w3.org/2000/svg" width="72" height="144" viewBox="0 0 72 144" shape-rendering="crispEdges">
<path fill="#2a1c20" d="M18 18h36v26H18z"/><path fill="#8b533c" d="M22 28h28v28H22z"/><path fill="#17171c" d="M18 42h36v16H18z"/>
<path fill="#eee5d7" d="M16 56h40v48H16z"/><path fill="#824a98" d="M12 64h12v44H12zM48 64h12v44H48z"/>
<path fill="#17233c" d="M22 104h13v32H22zM40 104h13v32H40z"/><path fill="#f6f2df" d="M18 132h19v8H18zM39 132h20v8H39z"/>
<path fill="#142923" d="M44 62h20v38H44z"/><path fill="#17a85b" d="M48 68h12v20H48z"/><path fill="#27d174" d="M52 72h4v12h-4z"/>
<path fill="#3b2b25" d="M12 136h26v8H12zM37 136h28v8H37z"/>
</svg>