<svg xmlns="http://www.w3.org/2000/svg" width="256" height="320" viewBox="0 0 256 320">
<rect width="256" height="320" fill="#d7c39a"/>
<rect x="16" y="16" width="224" height="288" fill="#bda577"/>
<rect x="26" y="26" width="204" height="268" fill="#e0cfab"/>
<path d="M28 92 L224 42" stroke="#ef4da5" stroke-width="18"/>
<path d="M28 142 L214 102" stroke="#36cbd9" stroke-width="14"/>
<path d="M40 260 L204 232" stroke="#f1b33a" stroke-width="12"/>
<g fill="#2f7c43">
  <rect x="112" y="148" width="18" height="92"/>
  <rect x="88" y="166" width="18" height="68" transform="rotate(-45 97 200)"/>
  <rect x="136" y="164" width="18" height="68" transform="rotate(45 145 198)"/>
  <rect x="92" y="138" width="16" height="60" transform="rotate(-24 100 168)"/>
  <rect x="138" y="138" width="16" height="60" transform="rotate(24 146 168)"/>
</g>
<rect x="42" y="278" width="52" height="8" fill="#332c2c"/><rect x="104" y="278" width="34" height="8" fill="#332c2c"/><rect x="148" y="278" width="64" height="8" fill="#332c2c"/>
</svg>